HIERARCHY
ROOT root
{
	OFFSET	0	13.1	24.9
	CHANNELS 6  Xposition Yposition Zposition Xrotation Yrotation Zrotation
	JOINT spine_1
	{
		OFFSET	0	9.99999	0
		CHANNELS 3  Xrotation Yrotation Zrotation
		JOINT spine_2
		{
			OFFSET	0	112	-10
			CHANNELS 3  Xrotation Yrotation Zrotation
			JOINT spine_3
			{
				OFFSET	0	206.5	19.3
				CHANNELS 3  Xrotation Yrotation Zrotation
				JOINT spine_4
				{
					OFFSET	0	110.4	14.6
					CHANNELS 3  Xrotation Yrotation Zrotation
					JOINT neck_1
					{
						OFFSET	0	71.8	-50.3
						CHANNELS 3  Xrotation Yrotation Zrotation
						JOINT neck_2
						{
							OFFSET	0	86.2	-25.8
							CHANNELS 3  Xrotation Yrotation Zrotation
							JOINT head_ee
							{
								OFFSET	0	179.8	-8.7
								CHANNELS 3  Xrotation Yrotation Zrotation
								End Site
								{
									OFFSET	1	0	0
								}
							}
						}
					}
					JOINT left_clavicle
					{
						OFFSET	-43.2	22.4	-70.8
						CHANNELS 3  Xrotation Yrotation Zrotation
						JOINT left_shoulder
						{
							OFFSET	-93.9	-5.79999	48.7
							CHANNELS 3  Xrotation Yrotation Zrotation
							JOINT left_elbow
							{
								OFFSET	-291.4	-30.8	15.2
								CHANNELS 3  Xrotation Yrotation Zrotation
								JOINT left_lowarm_twist
								{
									OFFSET	-110.7	-3.89999	13.6
									CHANNELS 3  Xrotation Yrotation Zrotation
									JOINT left_hand
									{
										OFFSET	-110.7	-3.89999	13.6
										CHANNELS 3  Xrotation Yrotation Zrotation
										JOINT left_ee
										{
											OFFSET	-80.8	-5.10001	12.1
											CHANNELS 3  Xrotation Yrotation Zrotation
											End Site
											{
												OFFSET	1	0	0
											}
										}
									}
								}
							}
						}
					}
					JOINT right_clavicle
					{
						OFFSET	43.2	22.4	-70.8
						CHANNELS 3  Xrotation Yrotation Zrotation
						JOINT right_shoulder
						{
							OFFSET	93.9	-5.79999	48.7
							CHANNELS 3  Xrotation Yrotation Zrotation
							JOINT right_elbow
							{
								OFFSET	291.4	-30.8	15.2
								CHANNELS 3  Xrotation Yrotation Zrotation
								JOINT right_lowarm_twist
								{
									OFFSET	110.7	-3.89999	13.6
									CHANNELS 3  Xrotation Yrotation Zrotation
									JOINT right_hand
									{
										OFFSET	110.7	-3.89999	13.6
										CHANNELS 3  Xrotation Yrotation Zrotation
										JOINT right_ee
										{
											OFFSET	80.8	-5.10001	12.1
											CHANNELS 3  Xrotation Yrotation Zrotation
											End Site
											{
												OFFSET	1	0	0
											}
										}
									}
								}
							}
						}
					}
				}
			}
		}
	}
	JOINT left_hip
	{
		OFFSET	-82.8	-127.5	0.300001
		CHANNELS 3  Xrotation Yrotation Zrotation
		JOINT left_knee
		{
			OFFSET	-28.2	-396.7	2.2
			CHANNELS 3  Xrotation Yrotation Zrotation
			JOINT left_ankle
			{
				OFFSET	-11.7	-411.3	35.4
				CHANNELS 3  Xrotation Yrotation Zrotation
				JOINT left_toes
				{
					OFFSET	0	-60	-88.6
					CHANNELS 3  Xrotation Yrotation Zrotation
					JOINT left_foot_ee
					{
						OFFSET	-22.5	-16.5	-42.2
						CHANNELS 3  Xrotation Yrotation Zrotation
						End Site
						{
							OFFSET	1	0	0
						}
					}
				}
			}
		}
	}
	JOINT right_hip
	{
		OFFSET	82.8	-127.5	0.300001
		CHANNELS 3  Xrotation Yrotation Zrotation
		JOINT right_knee
		{
			OFFSET	28.2	-396.7	2.2
			CHANNELS 3  Xrotation Yrotation Zrotation
			JOINT right_ankle
			{
				OFFSET	11.7	-411.3	35.4
				CHANNELS 3  Xrotation Yrotation Zrotation
				JOINT right_toes
				{
					OFFSET	0	-60	-88.6
					CHANNELS 3  Xrotation Yrotation Zrotation
					JOINT right_foot_ee
					{
						OFFSET	22.5	-16.5	-42.2
						CHANNELS 3  Xrotation Yrotation Zrotation
						End Site
						{
							OFFSET	1	0	0
						}
					}
				}
			}
		}
	}
}
MOTION
Frames: 13
Frame Time: 0.02
854.787 696.102 -1533.22 -28.0346 84.9351 25.4361 2.95529 0.151462 1.58307 2.95668 0.0504335 1.5895 2.95766 -0.203704 1.5772 2.95419 0.0479097 1.58958 -13.8382 7.43287 0.182062 -13.9854 14.0624 2.51418 -0.0 0.0 -0.0 -4.51716 21.092 -4.06779 -17.5959 -31.9175 69.3797 0.191717 -5.42529 0.00908355 -80.66 -7.90551 5.27037 1.94738 2.18267 13.9871 -0.0 0.0 -0.0 9.40629 -11.8944 -17.5604 -11.8311 26.9223 -60.18 2.26813 48.3234 -1.01762 79.3993 3.76947 8.57555 -3.38176 -28.1373 7.37927 0.0 0.0 0.0 14.4274 14.2481 -13.9062 -29.9063 0.0476451 4.5375 27.8134 3.61665 -3.65405 -12.3986 0.0 0.0 -0.0 0.0 -0.0 12.1208 -0.408585 -2.97075 -9.86404 -0.278767 -1.48629 38.2446 -8.44962 4.71016 -29.6861 0.0 0.0 0.0 0.0 0.0 
848.211 699.417 -1534.2 -37.7641 85.4012 35.4247 2.8331 0.161458 1.57758 2.83448 0.0607579 1.58465 2.83579 -0.196083 1.57365 2.83234 0.0548745 1.58487 -13.493 6.47158 0.1896 -13.5974 12.2113 2.1744 -0.0 0.0 -0.0 -4.29986 20.9152 -3.79253 -18.5885 -31.6323 69.5515 0.193415 -5.47307 0.00924484 -80.1731 -7.8438 5.27738 2.49442 1.21148 17.3939 -0.0 0.0 -0.0 9.29934 -11.693 -17.3884 -11.6419 26.5225 -60.0751 2.4774 50.8174 -1.17696 80.6937 3.91876 8.64839 -2.27105 -27.5981 1.60915 0.0 0.0 0.0 15.3636 14.5087 -14.083 -25.2775 0.195793 3.84276 27.0016 0.0774941 -3.58124 -12.9168 0.0 0.0 -0.0 0.0 -0.0 12.453 -0.992685 -3.10922 -9.59909 -0.274643 -1.44584 38.3197 -9.33391 4.72169 -28.2004 0.0 0.0 0.0 0.0 0.0 
841.37 701.594 -1533.31 -49.0287 85.5146 46.7902 2.83554 0.0749507 1.60127 2.83696 -0.0270811 1.6028 2.8358 -0.285733 1.57736 2.83233 -0.0330657 1.60269 -13.6523 5.91525 0.617133 -13.7361 10.8937 2.4215 -0.0 0.0 -0.0 -4.17209 20.8776 -3.61444 -19.4184 -31.7752 69.0087 0.203578 -5.75877 0.0102394 -79.606 -7.77183 5.28487 2.86496 0.262952 19.6318 -0.0 0.0 -0.0 9.03759 -11.872 -16.8988 -10.4508 25.6191 -60.6614 2.67041 52.9034 -1.32879 81.6551 4.03069 8.7003 -1.36512 -27.2474 -3.17749 0.0 0.0 0.0 14.6089 15.0385 -13.3119 -14.0764 0.319163 2.1312 22.653 -4.96035 -3.12022 -14.0068 0.0 0.0 -0.0 0.0 -0.0 12.3456 -1.81278 -3.27596 -9.47962 -0.272722 -1.42761 39.7222 -11.5334 4.86503 -26.0463 0.0 0.0 0.0 0.0 0.0 
835.717 709.481 -1533.45 -63.0594 86.3152 61.1225 2.77039 0.0718418 1.52102 2.77167 -0.0250791 1.52251 2.77066 -0.27248 1.49815 2.76753 -0.0324847 1.52237 -15.7549 6.21097 0.760972 -15.8782 11.4574 2.86757 -0.0 0.0 -0.0 -4.16047 19.4475 -3.92718 -19.2794 -31.4737 69.4046 0.236349 -6.67796 0.0137891 -76.9758 -7.43709 5.31023 3.22911 -2.11959 21.273 -0.0 0.0 -0.0 8.77765 -13.1139 -16.3146 -10.7866 23.8713 -60.2686 2.87742 54.9373 -1.49612 84.91 4.41575 8.86197 0.557961 -25.2052 -13.2166 0.0 0.0 0.0 15.1095 14.7056 -12.2461 -5.55099 0.188422 0.830744 17.1247 -19.4651 -2.65284 -11.891 0.0 0.0 -0.0 0.0 -0.0 12.0423 -1.93803 -3.38101 -9.676 -0.275859 -1.45758 33.6655 -11.3553 4.28756 -22.6849 0.0 0.0 0.0 0.0 0.0 
828.232 714.614 -1530.84 -69.4498 85.6946 67.9045 2.7383 0.111823 1.42981 2.73944 0.0206236 1.43403 2.73967 -0.213736 1.41816 2.73686 0.012895 1.43412 -14.4081 5.64649 1.17557 -14.4849 10.0743 2.93445 -0.0 0.0 -0.0 -3.76915 18.6357 -3.51633 -19.3884 -31.8285 69.9404 0.217354 -6.14556 0.0116679 -75.7292 -7.278 5.31683 3.6188 -3.43738 23.5543 -0.0 0.0 -0.0 8.60677 -14.2817 -15.901 -11.7014 24.2721 -59.6219 2.95453 55.646 -1.55951 84.0566 4.31392 8.8217 0.854942 -26.9595 -15.4901 0.0 0.0 0.0 15.6576 14.4235 -11.4011 -0.242915 0.00992641 0.0359561 13.0081 -18.918 -2.04491 -13.5011 0.0 0.0 -0.0 0.0 -0.0 11.5607 -1.99964 -4.08117 -9.44404 -0.272142 -1.42218 36.4803 -13.1921 4.58194 -23.7803 0.0 0.0 0.0 0.0 0.0 
825.505 713.187 -1530.16 -78.3015 85.4414 76.817 2.68221 0.12076 1.34692 2.68322 0.034815 1.35187 2.68381 -0.187622 1.33925 2.6813 0.0262213 1.35207 -18.4492 4.99192 -0.727052 -18.5743 9.99594 1.28271 -0.0 0.0 -0.0 -3.6463 17.8494 -3.49734 -19.3124 -31.9281 70.1123 0.222923 -6.30176 0.0122716 -74.2039 -7.08316 5.32016 4.00779 -5.89837 25.3467 -0.0 0.0 -0.0 8.48596 -15.4491 -15.5762 -11.7845 24.0167 -60.1927 3.12166 57.0982 -1.69869 85.341 4.4674 8.88173 1.50552 -27.956 -19.5498 0.0 0.0 0.0 16.3478 13.6156 -10.8238 3.48156 -0.158948 -0.510472 9.91045 -23.6823 -1.65355 -12.7634 0.0 0.0 -0.0 0.0 -0.0 12.0654 -2.00046 -3.80987 -9.77892 -0.277462 -1.47329 34.5933 -13.8144 4.40341 -22.7263 0.0 0.0 0.0 0.0 0.0 
823.847 710.551 -1525.85 -89.8803 85.6794 87.884 2.63269 0.105125 0.994298 2.63324 0.0416458 0.998972 2.63385 -0.123793 0.992147 2.63248 0.0344433 0.999246 -20.9108 6.36536 1.38573 -21.1127 11.5973 4.06729 -0.0 0.0 -0.0 -3.19143 16.1946 -3.12667 -18.8539 -32.0688 71.0425 0.268076 -7.56462 0.0177225 -71.8397 -6.78099 5.31497 4.32044 -9.25566 26.0984 -0.0 0.0 -0.0 8.01317 -15.8194 -14.7458 -10.0437 24.2164 -60.4071 3.14565 57.2977 -1.71885 85.23 4.45408 8.87668 2.0344 -28.6742 -22.8523 0.0 0.0 0.0 16.5696 12.608 -9.90456 3.13807 -0.141888 -0.46054 9.16063 -27.0932 -1.5943 -10.2977 0.0 0.0 -0.0 0.0 -0.0 11.6379 -1.94351 -2.55824 -10.1626 -0.283191 -1.53188 36.4662 -12.739 4.57581 -21.8319 0.0 0.0 0.0 0.0 0.0 
818.294 709.492 -1522.7 -88.7262 85.5288 86.7459 2.52542 0.146705 0.983974 2.52596 0.0837983 0.991314 2.52732 -0.0827923 0.991399 2.52596 0.0748118 0.992033 -21.1504 9.77949 0.20257 -21.7245 18.7602 4.59109 -0.0 0.0 -0.0 -2.69375 16.2616 -2.32604 -19.1695 -31.6758 70.3207 0.277998 -7.84119 0.0190524 -69.1023 -6.43151 5.2933 4.50412 -11.3578 26.4212 -0.0 0.0 -0.0 7.8674 -15.9335 -14.4927 -9.51349 24.3555 -60.916 3.10664 56.9721 -1.68608 84.2327 4.33489 8.83014 1.59799 -29.6823 -20.5194 0.0 0.0 0.0 16.3098 12.8817 -9.84848 3.1776 -0.143836 -0.466292 8.30366 -27.0566 -1.44961 -6.93577 0.0 0.0 -0.0 0.0 -0.0 11.8376 -1.65942 -1.88539 -10.3987 -0.28652 -1.56795 34.323 -10.6639 4.34874 -20.8559 0.0 0.0 0.0 0.0 0.0 
814.274 709.255 -1519.08 -89.5209 85.6338 87.6983 2.48514 0.10658 0.907211 2.48559 0.0486387 0.912154 2.48629 -0.104903 0.907406 2.48514 0.0397157 0.912586 -21.5011 11.1432 -0.892165 -22.3205 21.9121 4.32668 -0.0 0.0 -0.0 -2.71964 14.2711 -2.73681 -17.9415 -30.3898 72.3184 0.270838 -7.64164 0.0180879 -65.9813 -6.03459 5.24812 4.76019 -13.5855 27.1681 -0.0 0.0 -0.0 7.56053 -16.72 -13.9185 -9.30812 23.9113 -60.8322 3.0739 56.6944 -1.65867 85.2651 4.45829 8.87828 1.9608 -29.5749 -22.6131 0.0 0.0 0.0 15.8679 13.2337 -9.52179 3.09364 -0.139703 -0.454075 8.44487 -29.2841 -1.5158 -6.00448 0.0 0.0 -0.0 0.0 -0.0 11.3185 -0.515814 -1.3492 -10.6337 -0.289688 -1.60388 36.1215 -8.87142 4.51407 -20.9592 0.0 0.0 0.0 0.0 0.0 
808.292 708.417 -1513.16 -84.7228 85.551 82.8432 2.5882 0.298157 0.924026 2.58864 0.238757 0.941123 2.59251 0.0794933 0.967675 2.59128 0.231315 0.94298 -21.1279 13.3517 -3.10885 -22.3867 27.2318 3.35714 -0.0 0.0 -0.0 -2.51677 13.2048 -2.59703 -17.6833 -29.7361 72.7642 0.283147 -7.98457 0.0197613 -63.3357 -5.70027 5.19286 5.00397 -15.2373 28.0857 -0.0 0.0 -0.0 7.38216 -15.8908 -13.6919 -9.12268 23.7215 -60.4682 2.79127 54.1149 -1.42596 85.2011 4.45062 8.87536 1.56733 -29.469 -20.2903 0.0 0.0 0.0 15.5255 13.3697 -9.13075 2.87997 -0.129266 -0.422956 9.08923 -28.2267 -1.60487 -3.53103 0.0 0.0 -0.0 0.0 -0.0 11.0205 -0.757373 -0.838061 -10.8309 -0.292231 -1.63403 38.0998 -5.20196 4.68947 -22.5738 0.0 0.0 0.0 0.0 0.0 
801.133 711.932 -1508.77 -87.3331 85.5682 85.5612 2.63788 0.192499 0.876304 2.6383 0.13635 0.886776 2.64034 -0.0117559 0.89712 2.63924 0.130069 0.887719 -20.6848 15.0951 -3.80159 -22.3005 30.9349 3.54762 -0.0 0.0 -0.0 -2.30096 12.1833 -2.41619 -17.2621 -29.2192 72.9715 0.305136 -8.5957 0.0229318 -60.8646 -5.39047 5.12728 5.25578 -16.4923 29.2598 -0.0 0.0 -0.0 7.15164 -15.8557 -13.3139 -10.5228 23.4724 -60.6674 2.66074 52.8034 -1.32108 84.8324 4.40647 8.85838 1.44741 -29.0879 -19.502 0.0 0.0 0.0 14.867 14.0396 -8.351 3.30719 -0.15025 -0.485137 9.66241 -28.3853 -1.70538 -2.782 0.0 0.0 -0.0 0.0 -0.0 10.7475 -1.08277 -0.794123 -11.2898 -0.297748 -1.70423 39.6949 -2.49429 4.8359 -20.5927 0.0 0.0 0.0 0.0 0.0 
796.956 706.16 -1504.24 -87.9415 85.649 86.2904 2.65233 0.161743 0.817647 2.6527 0.109388 0.826281 2.65421 -0.0281727 0.833013 2.65325 0.103735 0.827009 -21.2282 16.4266 -4.13792 -23.2712 33.6132 4.18615 -0.0 0.0 -0.0 -2.03871 10.6972 -2.22175 -16.7616 -28.7669 72.7801 0.344852 -9.69445 0.0292445 -58.0568 -5.04212 5.03658 5.42295 -17.2623 30.066 -0.0 0.0 -0.0 6.847 -15.7893 -12.8167 -10.3272 23.5436 -60.6116 2.5105 51.189 -1.20268 84.7469 4.39624 8.85439 1.23873 -29.4214 -18.3913 0.0 0.0 0.0 14.7176 14.2121 -8.08977 3.13752 -0.141861 -0.460461 11.1728 -27.8909 -1.94672 -1.87133 0.0 0.0 -0.0 0.0 -0.0 10.5999 -0.840697 0.0434375 -11.5881 -0.301033 -1.74988 39.0431 -0.540846 4.78893 -20.4125 0.0 0.0 0.0 0.0 0.0 
789.388 705.899 -1504.24 -87.8223 85.5585 86.2045 2.67443 0.166763 0.800607 2.67478 0.115482 0.809596 2.67634 -0.0190981 0.817567 2.67543 0.110257 0.810324 -19.7232 17.9573 -3.86727 -21.9424 36.4953 4.79228 -0.0 0.0 -0.0 -2.75956 9.56071 -3.66869 -15.6683 -28.6595 73.0786 0.482437 -13.4409 0.0568485 -55.5134 -4.73064 4.93974 5.87958 -19.3545 32.2328 -0.0 0.0 -0.0 6.80434 -16.4634 -12.7048 -10.9038 23.1538 -61.2432 2.34374 49.2541 -1.0745 84.769 4.39888 8.85542 1.01541 -29.1394 -17.045 0.0 0.0 0.0 14.4941 13.8453 -7.97156 3.08454 -0.139256 -0.45275 12.8993 -27.5351 -2.21997 -1.23007 0.0 0.0 -0.0 0.0 -0.0 9.88118 -0.995689 -0.0162711 -11.2698 -0.29752 -1.70117 39.3557 0.563227 4.8245 -20.1403 0.0 0.0 0.0 0.0 0.0 
